<?xml version="1.0" standalone="no"?>
<!DOCTYPE svg PUBLIC "-//W3C//DTD SVG 20010904//EN"
 "http://www.w3.org/TR/2001/REC-SVG-20010904/DTD/svg10.dtd">
<svg version="1.0" xmlns="http://www.w3.org/2000/svg"
 width="108.000000pt" height="35.000000pt" viewBox="0 0 108.000000 35.000000"
 preserveAspectRatio="xMidYMid meet">
<metadata>
Created by potrace 1.16, written by Peter Selinger 2001-2019
</metadata>
<g transform="translate(0.000000,35.000000) scale(0.008438,-0.002734)"
fill="#000000" stroke="none">
<path d="M8151 9673 c-54 -61 -72 -89 -65 -99 12 -18 1197 -1054 1205 -1054 7
0 153 167 156 178 2 9 -1196 1056 -1211 1059 -6 1 -44 -37 -85 -84z m702 -462
l587 -514 -72 -81 c-40 -45 -73 -83 -75 -85 -3 -6 -1201 1043 -1200 1051 1 4
33 44 71 88 59 70 70 78 85 67 10 -6 282 -243 604 -526z"/>
<path d="M7305 8314 c-9 -14 -13 -29 -8 -34 371 -326 814 -710 820 -710 5 0
16 12 26 25 17 24 17 25 -20 58 -189 170 -786 687 -792 687 -5 0 -16 -12 -26
-26z"/>
<path d="M7224 8222 l-20 -27 415 -364 415 -364 22 29 c13 15 22 29 21 30 -1
1 -188 164 -415 363 -227 198 -414 361 -415 360 -1 0 -11 -12 -23 -27z"/>
<path d="M7141 8126 l-23 -25 33 -29 c19 -16 204 -178 412 -361 208 -182 381
-331 386 -331 12 0 43 38 40 48 -4 9 -815 722 -822 722 -2 0 -14 -11 -26 -24z"/>
<path d="M7059 8034 l-23 -25 29 -28 c17 -16 203 -180 414 -365 l385 -337 25
26 c22 22 24 27 11 38 -8 8 -196 172 -416 365 l-402 351 -23 -25z"/>
<path d="M6971 7936 l-22 -23 398 -349 c219 -192 406 -355 416 -363 16 -13 21
-12 42 10 l25 24 -414 363 c-228 199 -416 362 -419 362 -2 0 -14 -11 -26 -24z"/>
</g>
</svg>
